<?xml version="1.0" encoding="UTF-8"?>
<svg xmlns="http://www.w3.org/2000/svg" width="4.000in" height="2.750in" viewBox="0 0 288.0 198.0">
<rect width="288.0" height="198.0" fill="white"/>
<rect x="44.0" y="6.0" width="70.0" height="20.0" fill="#F2F3F4" stroke="#2C3E50" stroke-width="0.6"/>
<text x="79.0" y="11.6" text-anchor="middle" dominant-baseline="middle" font-size="6.4" font-weight="normal" fill="#111111" font-family="Times New Roman">eligible ops</text>
<text x="79.0" y="20.6" text-anchor="middle" dominant-baseline="middle" font-size="6.4" font-weight="normal" fill="#111111" font-family="Times New Roman">|E| × 16</text>
<line x1="79.0" y1="26.0" x2="79.0" y2="29.2" stroke="#2C3E50" stroke-width="0.8"/>
<polygon points="77.0,29.2 79.0,34.0 81.0,29.2" fill="#2C3E50"/>
<rect x="44.0" y="34.0" width="70.0" height="13.0" fill="#C5D9E8" stroke="#2C3E50" stroke-width="0.6"/>
<text x="79.0" y="40.5" text-anchor="middle" dominant-baseline="middle" font-size="6.8" font-weight="bold" fill="#111111" font-family="Times New Roman">encoder φ</text>
<rect x="44.0" y="47.0" width="70.0" height="12.0" fill="#D6EAF8" stroke="#2C3E50" stroke-width="0.6"/>
<text x="79.0" y="53.0" text-anchor="middle" dominant-baseline="middle" font-size="6.2" font-weight="normal" fill="#111111" font-family="Times New Roman">shared 2-layer MLP</text>
<rect x="44.0" y="59.0" width="70.0" height="12.0" fill="#D6EAF8" stroke="#2C3E50" stroke-width="0.6"/>
<text x="79.0" y="65.0" text-anchor="middle" dominant-baseline="middle" font-size="6.2" font-weight="normal" fill="#111111" font-family="Times New Roman">→ |E| × h</text>
<text x="79.0" y="76.5" text-anchor="middle" dominant-baseline="middle" font-size="5.4" font-weight="normal" fill="#555555" font-family="Times New Roman">(weights indep. of n, m)</text>
<line x1="114.0" y1="52.5" x2="125.2" y2="52.5" stroke="#2C3E50" stroke-width="0.8"/>
<polygon points="125.2,50.5 130.0,52.5 125.2,54.5" fill="#2C3E50"/>
<rect x="130.0" y="42.5" width="70.0" height="20.0" fill="#F2F3F4" stroke="#2C3E50" stroke-width="0.6"/>
<text x="165.0" y="48.1" text-anchor="middle" dominant-baseline="middle" font-size="6.4" font-weight="normal" fill="#111111" font-family="Times New Roman">embeddings</text>
<text x="165.0" y="57.1" text-anchor="middle" dominant-baseline="middle" font-size="6.4" font-weight="normal" fill="#111111" font-family="Times New Roman">|E| × h</text>
<rect x="216.0" y="34.0" width="70.0" height="13.0" fill="#F0DDBE" stroke="#2C3E50" stroke-width="0.6" stroke-dasharray="3,2"/>
<text x="251.0" y="40.5" text-anchor="middle" dominant-baseline="middle" font-size="6.8" font-weight="bold" fill="#111111" font-family="Times New Roman">self-attn × B</text>
<rect x="216.0" y="47.0" width="70.0" height="12.0" fill="#FDF3E3" stroke="#2C3E50" stroke-width="0.6" stroke-dasharray="3,2"/>
<text x="251.0" y="53.0" text-anchor="middle" dominant-baseline="middle" font-size="6.2" font-weight="normal" fill="#111111" font-family="Times New Roman">pre-LN, 4 heads</text>
<rect x="216.0" y="59.0" width="70.0" height="12.0" fill="#FDF3E3" stroke="#2C3E50" stroke-width="0.6" stroke-dasharray="3,2"/>
<text x="251.0" y="65.0" text-anchor="middle" dominant-baseline="middle" font-size="6.2" font-weight="normal" fill="#111111" font-family="Times New Roman">not in base (B=0)</text>
<polyline points="177.0,62.5 177.0,98.0 211.2,98.0" fill="none" stroke="#2C3E50" stroke-width="0.8"/>
<polygon points="211.2,96.0 216.0,98.0 211.2,100.0" fill="#2C3E50"/>
<line x1="200.0" y1="52.5" x2="211.2" y2="52.5" stroke="#8B6F3D" stroke-width="0.8" stroke-dasharray="3,2"/>
<polygon points="211.2,50.5 216.0,52.5 211.2,54.5" fill="#8B6F3D"/>
<line x1="262.9" y1="71.0" x2="262.9" y2="83.2" stroke="#8B6F3D" stroke-width="0.8" stroke-dasharray="3,2"/>
<polygon points="260.9,83.2 262.9,88.0 264.9,83.2" fill="#8B6F3D"/>
<rect x="216.0" y="88.0" width="70.0" height="13.0" fill="#C1E6D1" stroke="#2C3E50" stroke-width="0.6"/>
<text x="251.0" y="94.5" text-anchor="middle" dominant-baseline="middle" font-size="6.8" font-weight="bold" fill="#111111" font-family="Times New Roman">pooling</text>
<rect x="216.0" y="101.0" width="70.0" height="12.0" fill="#D5F5E3" stroke="#2C3E50" stroke-width="0.6"/>
<text x="251.0" y="107.0" text-anchor="middle" dominant-baseline="middle" font-size="6.2" font-weight="normal" fill="#111111" font-family="Times New Roman">[mean ; max]</text>
<rect x="216.0" y="113.0" width="70.0" height="12.0" fill="#D5F5E3" stroke="#2C3E50" stroke-width="0.6"/>
<text x="251.0" y="119.0" text-anchor="middle" dominant-baseline="middle" font-size="6.2" font-weight="normal" fill="#111111" font-family="Times New Roman">perm.-invariant, 2h</text>
<rect x="130.0" y="110.5" width="70.0" height="13.0" fill="#C5D9E8" stroke="#2C3E50" stroke-width="0.6"/>
<text x="165.0" y="117.0" text-anchor="middle" dominant-baseline="middle" font-size="6.8" font-weight="bold" fill="#111111" font-family="Times New Roman">context MLP</text>
<rect x="130.0" y="123.5" width="70.0" height="12.0" fill="#D6EAF8" stroke="#2C3E50" stroke-width="0.6"/>
<text x="165.0" y="129.5" text-anchor="middle" dominant-baseline="middle" font-size="6.2" font-weight="normal" fill="#111111" font-family="Times New Roman">2-layer MLP</text>
<rect x="130.0" y="135.5" width="70.0" height="12.0" fill="#D6EAF8" stroke="#2C3E50" stroke-width="0.6"/>
<text x="165.0" y="141.5" text-anchor="middle" dominant-baseline="middle" font-size="6.2" font-weight="normal" fill="#111111" font-family="Times New Roman">→ context g</text>
<line x1="216.0" y1="117.8" x2="204.8" y2="117.8" stroke="#2C3E50" stroke-width="0.8"/>
<polygon points="204.8,115.8 200.0,117.8 204.8,119.8" fill="#2C3E50"/>
<rect x="44.0" y="88.0" width="70.0" height="13.0" fill="#E8C5C5" stroke="#2C3E50" stroke-width="0.6"/>
<text x="79.0" y="94.5" text-anchor="middle" dominant-baseline="middle" font-size="6.8" font-weight="bold" fill="#111111" font-family="Times New Roman">policy head</text>
<rect x="44.0" y="101.0" width="70.0" height="12.0" fill="#FADBD8" stroke="#2C3E50" stroke-width="0.6"/>
<text x="79.0" y="107.0" text-anchor="middle" dominant-baseline="middle" font-size="6.2" font-weight="normal" fill="#111111" font-family="Times New Roman">logits [φi ; g]</text>
<rect x="44.0" y="113.0" width="70.0" height="12.0" fill="#FADBD8" stroke="#2C3E50" stroke-width="0.6"/>
<text x="79.0" y="119.0" text-anchor="middle" dominant-baseline="middle" font-size="6.2" font-weight="normal" fill="#111111" font-family="Times New Roman">masked softmax</text>
<rect x="44.0" y="133.0" width="70.0" height="13.0" fill="#E8C5C5" stroke="#2C3E50" stroke-width="0.6"/>
<text x="79.0" y="139.5" text-anchor="middle" dominant-baseline="middle" font-size="6.8" font-weight="bold" fill="#111111" font-family="Times New Roman">value head</text>
<rect x="44.0" y="146.0" width="70.0" height="12.0" fill="#FADBD8" stroke="#2C3E50" stroke-width="0.6"/>
<text x="79.0" y="152.0" text-anchor="middle" dominant-baseline="middle" font-size="6.2" font-weight="normal" fill="#111111" font-family="Times New Roman">2-layer MLP on g</text>
<rect x="44.0" y="158.0" width="70.0" height="12.0" fill="#FADBD8" stroke="#2C3E50" stroke-width="0.6"/>
<text x="79.0" y="164.0" text-anchor="middle" dominant-baseline="middle" font-size="6.2" font-weight="normal" fill="#111111" font-family="Times New Roman">return estimate</text>
<polyline points="130.0,129.0 122.0,129.0 122.0,106.5 118.8,106.5" fill="none" stroke="#2C3E50" stroke-width="0.8"/>
<polygon points="118.8,104.5 114.0,106.5 118.8,108.5" fill="#2C3E50"/>
<polyline points="130.0,129.0 122.0,129.0 122.0,151.5 118.8,151.5" fill="none" stroke="#2C3E50" stroke-width="0.8"/>
<polygon points="118.8,149.5 114.0,151.5 118.8,153.5" fill="#2C3E50"/>
<line x1="44.0" y1="106.5" x2="32.8" y2="106.5" stroke="#2C3E50" stroke-width="0.8"/>
<polygon points="32.8,104.5 28.0,106.5 32.8,108.5" fill="#2C3E50"/>
<text x="25.0" y="106.5" text-anchor="end" dominant-baseline="middle" font-size="6.4" font-weight="normal" fill="#111111" font-family="Times New Roman">π(i | s)</text>
<line x1="44.0" y1="151.5" x2="32.8" y2="151.5" stroke="#2C3E50" stroke-width="0.8"/>
<polygon points="32.8,149.5 28.0,151.5 32.8,153.5" fill="#2C3E50"/>
<text x="25.0" y="151.5" text-anchor="end" dominant-baseline="middle" font-size="6.4" font-weight="normal" fill="#111111" font-family="Times New Roman">V(s)</text>
<rect x="216.0" y="133.0" width="70.0" height="20.0" fill="#F2F3F4" stroke="#2C3E50" stroke-width="0.6"/>
<text x="251.0" y="138.6" text-anchor="middle" dominant-baseline="middle" font-size="6.4" font-weight="normal" fill="#111111" font-family="Times New Roman">global state</text>
<text x="251.0" y="147.6" text-anchor="middle" dominant-baseline="middle" font-size="6.4" font-weight="normal" fill="#111111" font-family="Times New Roman">12 features</text>
<line x1="216.0" y1="143.0" x2="204.8" y2="143.0" stroke="#2C3E50" stroke-width="0.8"/>
<polygon points="204.8,141.0 200.0,143.0 204.8,145.0" fill="#2C3E50"/>
<polyline points="153.0,62.5 153.0,97.0 117.5,97.0" fill="none" stroke="#7F8C8D" stroke-width="0.8" stroke-dasharray="3.5,2"/>
<polygon points="117.5,95.5 114.0,97.0 117.5,98.5" fill="#7F8C8D"/>
<text x="149.0" y="85.0" text-anchor="end" dominant-baseline="middle" font-size="5.4" font-weight="normal" fill="#555555" font-family="Times New Roman">skip connection: each φi</text>
<line x1="2" y1="178.0" x2="286.0" y2="178.0" stroke="#BBBBBB" stroke-width="0.5"/>
<rect x="4.3" y="185.0" width="8.0" height="8.0" fill="#D6EAF8" stroke="#888888" stroke-width="0.4"/>
<text x="15.3" y="189.0" text-anchor="start" dominant-baseline="middle" font-size="5.4" font-weight="normal" fill="#333333" font-family="Times New Roman">learned MLP</text>
<rect x="61.1" y="185.0" width="8.0" height="8.0" fill="#FADBD8" stroke="#888888" stroke-width="0.4"/>
<text x="72.1" y="189.0" text-anchor="start" dominant-baseline="middle" font-size="5.4" font-weight="normal" fill="#333333" font-family="Times New Roman">output heads</text>
<rect x="117.9" y="185.0" width="8.0" height="8.0" fill="#D5F5E3" stroke="#888888" stroke-width="0.4"/>
<text x="128.9" y="189.0" text-anchor="start" dominant-baseline="middle" font-size="5.4" font-weight="normal" fill="#333333" font-family="Times New Roman">non-trainable</text>
<rect x="174.7" y="185.0" width="8.0" height="8.0" fill="#F2F3F4" stroke="#888888" stroke-width="0.4"/>
<text x="185.7" y="189.0" text-anchor="start" dominant-baseline="middle" font-size="5.4" font-weight="normal" fill="#333333" font-family="Times New Roman">tensor / input</text>
<rect x="231.5" y="185.0" width="8.0" height="8.0" fill="#FDF3E3" stroke="#8B6F3D" stroke-width="0.5" stroke-dasharray="2,1.5"/>
<text x="242.5" y="189.0" text-anchor="start" dominant-baseline="middle" font-size="5.4" font-weight="normal" fill="#333333" font-family="Times New Roman">attn. variant</text>
</svg>